<?xml version="1.0" encoding="UTF-8" standalone="no"?>
<svg width="32" height="32" viewBox="0 0 32 32" fill="none" xmlns="http://www.w3.org/2000/svg">
  <rect width="32" height="32" rx="6" fill="#4CAF50"/>
  <path d="M16 6C10.4772 6 6 10.4772 6 16C6 21.5228 10.4772 26 16 26C21.5228 26 26 21.5228 26 16C26 10.4772 21.5228 6 16 6ZM13 12C13 11.4477 13.4477 11 14 11C14.5523 11 15 11.4477 15 12V20C15 20.5523 14.5523 21 14 21C13.4477 21 13 20.5523 13 20V12ZM17 12C17 11.4477 17.4477 11 18 11C18.5523 11 19 11.4477 19 12V20C19 20.5523 18.5523 21 18 21C17.4477 21 17 20.5523 17 20V12Z" fill="white"/>
</svg>
